<?xml version="1.0" standalone="no"?>
 <!DOCTYPE svg PUBLIC "-//W3C//DTD SVG 1.1//EN" 
 "http://www.w3.org/Graphics/SVG/1.1/DTD/svg11.dtd"> 
<svg xmlns="http://www.w3.org/2000/svg" version="1.1" 
    width="29.7002cm" height="21.0007cm" viewBox="0 0 116930 82680 ">
<title>SVG Picture created as ESP_Breakout-F.Cu.svg date 2018/11/01 20:35:01 </title>
  <desc>Picture generated by PCBNEW </desc>
<g style="fill:#000000; fill-opacity:1;stroke:#000000; stroke-opacity:1;
stroke-linecap:round; stroke-linejoin:round; "
 transform="translate(0 0) scale(1 1)">
</g>
<g style="fill:#000000; fill-opacity:0.0; 
stroke:#000000; stroke-width:-0.000393701; stroke-opacity:1; 
stroke-linecap:round; stroke-linejoin:round;">
</g>
<g style="fill:#000000; fill-opacity:1.0; 
stroke:#000000; stroke-width:39.3701; stroke-opacity:1; 
stroke-linecap:round; stroke-linejoin:round;">
<rect x="49837.5" y="35498" width="22825.1" height="18811" rx="0" />
</g>
<g style="fill:#FFFFFF; fill-opacity:1.0; 
stroke:#FFFFFF; stroke-width:39.3701; stroke-opacity:1; 
stroke-linecap:round; stroke-linejoin:round;">
</g>
<g style="fill:#FFFFFF; fill-opacity:1.0; 
stroke:#FFFFFF; stroke-width:0; stroke-opacity:1; 
stroke-linecap:round; stroke-linejoin:round;">
<polyline style="fill-rule:evenodd;"
points="54165,41334
54165,40665
54834,40665
54834,41334
54165,41334
" /> 
</g>
<g style="fill:#FFFFFF; fill-opacity:1.0; 
stroke:#FFFFFF; stroke-width:669.291; stroke-opacity:1; 
stroke-linecap:round; stroke-linejoin:round;">
</g>
<g style="fill:#FFFFFF; fill-opacity:0.0; 
stroke:#FFFFFF; stroke-width:669.291; stroke-opacity:1; 
stroke-linecap:round; stroke-linejoin:round;">
<path d="M54500 42000
L54500 42000
" />
<path d="M54500 43000
L54500 43000
" />
<path d="M54500 44000
L54500 44000
" />
<path d="M54500 45000
L54500 45000
" />
<path d="M54500 46000
L54500 46000
" />
<path d="M54500 47000
L54500 47000
" />
<path d="M54500 48000
L54500 48000
" />
<path d="M54500 49000
L54500 49000
" />
<path d="M54500 50000
L54500 50000
" />
<path d="M54500 51000
L54500 51000
" />
</g>
<g style="fill:#FFFFFF; fill-opacity:0.0; 
stroke:#FFFFFF; stroke-width:0; stroke-opacity:1; 
stroke-linecap:round; stroke-linejoin:round;">
</g>
<g style="fill:#FFFFFF; fill-opacity:1.0; 
stroke:#FFFFFF; stroke-width:0; stroke-opacity:1; 
stroke-linecap:round; stroke-linejoin:round;">
<polyline style="fill-rule:evenodd;"
points="68334,50665
68334,51334
67665,51334
67665,50665
68334,50665
" /> 
</g>
<g style="fill:#FFFFFF; fill-opacity:1.0; 
stroke:#FFFFFF; stroke-width:669.291; stroke-opacity:1; 
stroke-linecap:round; stroke-linejoin:round;">
</g>
<g style="fill:#FFFFFF; fill-opacity:0.0; 
stroke:#FFFFFF; stroke-width:669.291; stroke-opacity:1; 
stroke-linecap:round; stroke-linejoin:round;">
<path d="M68000 50000
L68000 50000
" />
<path d="M68000 49000
L68000 49000
" />
<path d="M68000 48000
L68000 48000
" />
<path d="M68000 47000
L68000 47000
" />
<path d="M68000 46000
L68000 46000
" />
<path d="M68000 45000
L68000 45000
" />
<path d="M68000 44000
L68000 44000
" />
<path d="M68000 43000
L68000 43000
" />
<path d="M68000 42000
L68000 42000
" />
<path d="M68000 41000
L68000 41000
" />
</g>
<g style="fill:#FFFFFF; fill-opacity:0.0; 
stroke:#FFFFFF; stroke-width:0; stroke-opacity:1; 
stroke-linecap:round; stroke-linejoin:round;">
</g>
<g style="fill:#FFFFFF; fill-opacity:1.0; 
stroke:#FFFFFF; stroke-width:0; stroke-opacity:1; 
stroke-linecap:round; stroke-linejoin:round;">
<polyline style="fill-rule:evenodd;"
points="57732,41216
57732,40783
58716,40783
58716,41216
57732,41216
" /> 
<polyline style="fill-rule:evenodd;"
points="57732,42003
57732,41570
58716,41570
58716,42003
57732,42003
" /> 
<polyline style="fill-rule:evenodd;"
points="57732,42791
57732,42358
58716,42358
58716,42791
57732,42791
" /> 
<polyline style="fill-rule:evenodd;"
points="57732,43578
57732,43145
58716,43145
58716,43578
57732,43578
" /> 
<polyline style="fill-rule:evenodd;"
points="57732,44366
57732,43933
58716,43933
58716,44366
57732,44366
" /> 
<polyline style="fill-rule:evenodd;"
points="57732,45153
57732,44720
58716,44720
58716,45153
57732,45153
" /> 
<polyline style="fill-rule:evenodd;"
points="57732,45940
57732,45507
58716,45507
58716,45940
57732,45940
" /> 
<polyline style="fill-rule:evenodd;"
points="57732,46728
57732,46295
58716,46295
58716,46728
57732,46728
" /> 
<polyline style="fill-rule:evenodd;"
points="63795,46728
63795,46295
64779,46295
64779,46728
63795,46728
" /> 
<polyline style="fill-rule:evenodd;"
points="63795,45940
63795,45507
64779,45507
64779,45940
63795,45940
" /> 
<polyline style="fill-rule:evenodd;"
points="63795,45153
63795,44720
64779,44720
64779,45153
63795,45153
" /> 
<polyline style="fill-rule:evenodd;"
points="63795,44366
63795,43933
64779,43933
64779,44366
63795,44366
" /> 
<polyline style="fill-rule:evenodd;"
points="63795,43578
63795,43145
64779,43145
64779,43578
63795,43578
" /> 
<polyline style="fill-rule:evenodd;"
points="63795,42791
63795,42358
64779,42358
64779,42791
63795,42791
" /> 
<polyline style="fill-rule:evenodd;"
points="63795,42003
63795,41570
64779,41570
64779,42003
63795,42003
" /> 
<polyline style="fill-rule:evenodd;"
points="63795,41216
63795,40783
64779,40783
64779,41216
63795,41216
" /> 
<polyline style="fill-rule:evenodd;"
points="59500,47673
59066,47673
59066,46688
59500,46688
59500,47673
" /> 
<polyline style="fill-rule:evenodd;"
points="60287,47673
59854,47673
59854,46688
60287,46688
60287,47673
" /> 
<polyline style="fill-rule:evenodd;"
points="61074,47673
60641,47673
60641,46688
61074,46688
61074,47673
" /> 
<polyline style="fill-rule:evenodd;"
points="61862,47673
61429,47673
61429,46688
61862,46688
61862,47673
" /> 
<polyline style="fill-rule:evenodd;"
points="62649,47673
62216,47673
62216,46688
62649,46688
62649,47673
" /> 
<polyline style="fill-rule:evenodd;"
points="63437,47673
63003,47673
63003,46688
63437,46688
63437,47673
" /> 
</g>
<g style="fill:#FFFFFF; fill-opacity:1.0; 
stroke:#FFFFFF; stroke-width:314.961; stroke-opacity:1; 
stroke-linecap:round; stroke-linejoin:round;">
</g>
<g style="fill:#FFFFFF; fill-opacity:0.0; 
stroke:#FFFFFF; stroke-width:314.961; stroke-opacity:1; 
stroke-linecap:round; stroke-linejoin:round;">
<path d="M58500 41000
L54500 41000
" />
<path d="M58500 41787
L54712 41787
" />
<path d="M54712 41787
L54500 42000
" />
<path d="M58000 42574
L54925 42574
" />
<path d="M54925 42574
L54500 43000
" />
<path d="M58500 43362
L55137 43362
" />
<path d="M55137 43362
L54500 44000
" />
<path d="M58500 44149
L55350 44149
" />
<path d="M55350 44149
L54500 45000
" />
<path d="M58500 44937
L55562 44937
" />
<path d="M55562 44937
L54500 46000
" />
<path d="M58500 45724
L58224 46000
" />
<path d="M55500 46000
L54500 47000
" />
<path d="M58224 46000
L55500 46000
" />
<path d="M58500 46511
L55988 46511
" />
<path d="M55988 46511
L54500 48000
" />
<path d="M59283 46905
L59283 48216
" />
<path d="M58500 49000
L54500 49000
" />
<path d="M59283 48216
L58500 49000
" />
<path d="M60070 46905
L60070 48429
" />
<path d="M58500 50000
L54500 50000
" />
<path d="M60070 48429
L58500 50000
" />
<path d="M60858 46905
L60858 49641
" />
<path d="M60858 49641
L59500 51000
" />
<path d="M59500 51000
L54500 51000
" />
<path d="M61645 46905
L61645 49645
" />
<path d="M63000 51000
L68000 51000
" />
<path d="M61645 49645
L63000 51000
" />
<path d="M68000 50000
L64000 50000
" />
<path d="M62433 48433
L64000 50000
" />
<path d="M62433 48433
L62433 46905
" />
<path d="M63220 46905
L63220 48220
" />
<path d="M64000 49000
L68000 49000
" />
<path d="M63220 48220
L64000 49000
" />
<path d="M64011 46511
L65011 46511
" />
<path d="M65011 46511
L66500 48000
" />
<path d="M66500 48000
L68000 48000
" />
<path d="M66700 47100
L66800 47000
" />
<path d="M65300 45750
L65350 45750
" />
<path d="M65350 45750
L66700 47100
" />
<path d="M64037 45750
L65300 45750
" />
<path d="M66800 47000
L68000 47000
" />
<path d="M64011 45724
L64037 45750
" />
<path d="M64011 45724
L64724 45724
" />
<path d="M64011 44937
L65437 44937
" />
<path d="M66500 46000
L68000 46000
" />
<path d="M65437 44937
L66500 46000
" />
<path d="M64011 44149
L65649 44149
" />
<path d="M66500 45000
L68000 45000
" />
<path d="M65649 44149
L66500 45000
" />
<path d="M64011 43362
L65862 43362
" />
<path d="M66500 44000
L68000 44000
" />
<path d="M65862 43362
L66500 44000
" />
<path d="M64011 42574
L65925 42574
" />
<path d="M66350 43000
L68000 43000
" />
<path d="M65925 42574
L66350 43000
" />
<path d="M64011 41787
L67787 41787
" />
<path d="M67787 41787
L68000 42000
" />
<path d="M64011 41000
L68000 41000
" />
</g>
<g style="fill:#000000; fill-opacity:0.0; 
stroke:#000000; stroke-width:314.961; stroke-opacity:1; 
stroke-linecap:round; stroke-linejoin:round;">
</g>
<g style="fill:#000000; fill-opacity:1.0; 
stroke:#000000; stroke-width:0; stroke-opacity:1; 
stroke-linecap:round; stroke-linejoin:round;">
<circle cx="54500" cy="41000" r="68.8976" /> 
</g>
<g style="fill:#000000; fill-opacity:1.0; 
stroke:#000000; stroke-width:39.3701; stroke-opacity:1; 
stroke-linecap:round; stroke-linejoin:round;">
</g>
<g style="fill:#000000; fill-opacity:1.0; 
stroke:#000000; stroke-width:0; stroke-opacity:1; 
stroke-linecap:round; stroke-linejoin:round;">
<circle cx="54500" cy="42000" r="68.8976" /> 
</g>
<g style="fill:#000000; fill-opacity:1.0; 
stroke:#000000; stroke-width:39.3701; stroke-opacity:1; 
stroke-linecap:round; stroke-linejoin:round;">
</g>
<g style="fill:#000000; fill-opacity:1.0; 
stroke:#000000; stroke-width:0; stroke-opacity:1; 
stroke-linecap:round; stroke-linejoin:round;">
<circle cx="54500" cy="43000" r="68.8976" /> 
</g>
<g style="fill:#000000; fill-opacity:1.0; 
stroke:#000000; stroke-width:39.3701; stroke-opacity:1; 
stroke-linecap:round; stroke-linejoin:round;">
</g>
<g style="fill:#000000; fill-opacity:1.0; 
stroke:#000000; stroke-width:0; stroke-opacity:1; 
stroke-linecap:round; stroke-linejoin:round;">
<circle cx="54500" cy="44000" r="68.8976" /> 
</g>
<g style="fill:#000000; fill-opacity:1.0; 
stroke:#000000; stroke-width:39.3701; stroke-opacity:1; 
stroke-linecap:round; stroke-linejoin:round;">
</g>
<g style="fill:#000000; fill-opacity:1.0; 
stroke:#000000; stroke-width:0; stroke-opacity:1; 
stroke-linecap:round; stroke-linejoin:round;">
<circle cx="54500" cy="45000" r="68.8976" /> 
</g>
<g style="fill:#000000; fill-opacity:1.0; 
stroke:#000000; stroke-width:39.3701; stroke-opacity:1; 
stroke-linecap:round; stroke-linejoin:round;">
</g>
<g style="fill:#000000; fill-opacity:1.0; 
stroke:#000000; stroke-width:0; stroke-opacity:1; 
stroke-linecap:round; stroke-linejoin:round;">
<circle cx="54500" cy="46000" r="68.8976" /> 
</g>
<g style="fill:#000000; fill-opacity:1.0; 
stroke:#000000; stroke-width:39.3701; stroke-opacity:1; 
stroke-linecap:round; stroke-linejoin:round;">
</g>
<g style="fill:#000000; fill-opacity:1.0; 
stroke:#000000; stroke-width:0; stroke-opacity:1; 
stroke-linecap:round; stroke-linejoin:round;">
<circle cx="54500" cy="47000" r="68.8976" /> 
</g>
<g style="fill:#000000; fill-opacity:1.0; 
stroke:#000000; stroke-width:39.3701; stroke-opacity:1; 
stroke-linecap:round; stroke-linejoin:round;">
</g>
<g style="fill:#000000; fill-opacity:1.0; 
stroke:#000000; stroke-width:0; stroke-opacity:1; 
stroke-linecap:round; stroke-linejoin:round;">
<circle cx="54500" cy="48000" r="68.8976" /> 
</g>
<g style="fill:#000000; fill-opacity:1.0; 
stroke:#000000; stroke-width:39.3701; stroke-opacity:1; 
stroke-linecap:round; stroke-linejoin:round;">
</g>
<g style="fill:#000000; fill-opacity:1.0; 
stroke:#000000; stroke-width:0; stroke-opacity:1; 
stroke-linecap:round; stroke-linejoin:round;">
<circle cx="54500" cy="49000" r="68.8976" /> 
</g>
<g style="fill:#000000; fill-opacity:1.0; 
stroke:#000000; stroke-width:39.3701; stroke-opacity:1; 
stroke-linecap:round; stroke-linejoin:round;">
</g>
<g style="fill:#000000; fill-opacity:1.0; 
stroke:#000000; stroke-width:0; stroke-opacity:1; 
stroke-linecap:round; stroke-linejoin:round;">
<circle cx="54500" cy="50000" r="68.8976" /> 
</g>
<g style="fill:#000000; fill-opacity:1.0; 
stroke:#000000; stroke-width:39.3701; stroke-opacity:1; 
stroke-linecap:round; stroke-linejoin:round;">
</g>
<g style="fill:#000000; fill-opacity:1.0; 
stroke:#000000; stroke-width:0; stroke-opacity:1; 
stroke-linecap:round; stroke-linejoin:round;">
<circle cx="54500" cy="51000" r="68.8976" /> 
</g>
<g style="fill:#000000; fill-opacity:1.0; 
stroke:#000000; stroke-width:39.3701; stroke-opacity:1; 
stroke-linecap:round; stroke-linejoin:round;">
</g>
<g style="fill:#000000; fill-opacity:1.0; 
stroke:#000000; stroke-width:0; stroke-opacity:1; 
stroke-linecap:round; stroke-linejoin:round;">
<circle cx="68000" cy="51000" r="68.8976" /> 
</g>
<g style="fill:#000000; fill-opacity:1.0; 
stroke:#000000; stroke-width:39.3701; stroke-opacity:1; 
stroke-linecap:round; stroke-linejoin:round;">
</g>
<g style="fill:#000000; fill-opacity:1.0; 
stroke:#000000; stroke-width:0; stroke-opacity:1; 
stroke-linecap:round; stroke-linejoin:round;">
<circle cx="68000" cy="50000" r="68.8976" /> 
</g>
<g style="fill:#000000; fill-opacity:1.0; 
stroke:#000000; stroke-width:39.3701; stroke-opacity:1; 
stroke-linecap:round; stroke-linejoin:round;">
</g>
<g style="fill:#000000; fill-opacity:1.0; 
stroke:#000000; stroke-width:0; stroke-opacity:1; 
stroke-linecap:round; stroke-linejoin:round;">
<circle cx="68000" cy="49000" r="68.8976" /> 
</g>
<g style="fill:#000000; fill-opacity:1.0; 
stroke:#000000; stroke-width:39.3701; stroke-opacity:1; 
stroke-linecap:round; stroke-linejoin:round;">
</g>
<g style="fill:#000000; fill-opacity:1.0; 
stroke:#000000; stroke-width:0; stroke-opacity:1; 
stroke-linecap:round; stroke-linejoin:round;">
<circle cx="68000" cy="48000" r="68.8976" /> 
</g>
<g style="fill:#000000; fill-opacity:1.0; 
stroke:#000000; stroke-width:39.3701; stroke-opacity:1; 
stroke-linecap:round; stroke-linejoin:round;">
</g>
<g style="fill:#000000; fill-opacity:1.0; 
stroke:#000000; stroke-width:0; stroke-opacity:1; 
stroke-linecap:round; stroke-linejoin:round;">
<circle cx="68000" cy="47000" r="68.8976" /> 
</g>
<g style="fill:#000000; fill-opacity:1.0; 
stroke:#000000; stroke-width:39.3701; stroke-opacity:1; 
stroke-linecap:round; stroke-linejoin:round;">
</g>
<g style="fill:#000000; fill-opacity:1.0; 
stroke:#000000; stroke-width:0; stroke-opacity:1; 
stroke-linecap:round; stroke-linejoin:round;">
<circle cx="68000" cy="46000" r="68.8976" /> 
</g>
<g style="fill:#000000; fill-opacity:1.0; 
stroke:#000000; stroke-width:39.3701; stroke-opacity:1; 
stroke-linecap:round; stroke-linejoin:round;">
</g>
<g style="fill:#000000; fill-opacity:1.0; 
stroke:#000000; stroke-width:0; stroke-opacity:1; 
stroke-linecap:round; stroke-linejoin:round;">
<circle cx="68000" cy="45000" r="68.8976" /> 
</g>
<g style="fill:#000000; fill-opacity:1.0; 
stroke:#000000; stroke-width:39.3701; stroke-opacity:1; 
stroke-linecap:round; stroke-linejoin:round;">
</g>
<g style="fill:#000000; fill-opacity:1.0; 
stroke:#000000; stroke-width:0; stroke-opacity:1; 
stroke-linecap:round; stroke-linejoin:round;">
<circle cx="68000" cy="44000" r="68.8976" /> 
</g>
<g style="fill:#000000; fill-opacity:1.0; 
stroke:#000000; stroke-width:39.3701; stroke-opacity:1; 
stroke-linecap:round; stroke-linejoin:round;">
</g>
<g style="fill:#000000; fill-opacity:1.0; 
stroke:#000000; stroke-width:0; stroke-opacity:1; 
stroke-linecap:round; stroke-linejoin:round;">
<circle cx="68000" cy="43000" r="68.8976" /> 
</g>
<g style="fill:#000000; fill-opacity:1.0; 
stroke:#000000; stroke-width:39.3701; stroke-opacity:1; 
stroke-linecap:round; stroke-linejoin:round;">
</g>
<g style="fill:#000000; fill-opacity:1.0; 
stroke:#000000; stroke-width:0; stroke-opacity:1; 
stroke-linecap:round; stroke-linejoin:round;">
<circle cx="68000" cy="42000" r="68.8976" /> 
</g>
<g style="fill:#000000; fill-opacity:1.0; 
stroke:#000000; stroke-width:39.3701; stroke-opacity:1; 
stroke-linecap:round; stroke-linejoin:round;">
</g>
<g style="fill:#000000; fill-opacity:1.0; 
stroke:#000000; stroke-width:0; stroke-opacity:1; 
stroke-linecap:round; stroke-linejoin:round;">
<circle cx="68000" cy="41000" r="68.8976" /> 
</g>
<g style="fill:#000000; fill-opacity:1.0; 
stroke:#000000; stroke-width:39.3701; stroke-opacity:1; 
stroke-linecap:round; stroke-linejoin:round;">
</g>
<g style="fill:#FFFFFF; fill-opacity:1.0; 
stroke:#FFFFFF; stroke-width:39.3701; stroke-opacity:1; 
stroke-linecap:round; stroke-linejoin:round;">
</g> 
</svg>
