G04 #@! TF.FileFunction,Copper,L1,Top,Signal*
%FSLAX46Y46*%
G04 Gerber Fmt 4.6, Leading zero omitted, Abs format (unit mm)*
G04 Created by KiCad (PCBNEW 4.0.7) date Thursday, 01. November 2018 'u15' 19:15:50*
%MOMM*%
%LPD*%
G01*
G04 APERTURE LIST*
%ADD10C,0.100000*%
%ADD11R,1.700000X1.700000*%
%ADD12O,1.700000X1.700000*%
%ADD13R,2.500000X1.100000*%
%ADD14R,1.100000X2.500000*%
%ADD15C,0.250000*%
G04 APERTURE END LIST*
D10*
D11*
X138430000Y-104140000D03*
D12*
X138430000Y-106680000D03*
X138430000Y-109220000D03*
X138430000Y-111760000D03*
X138430000Y-114300000D03*
X138430000Y-116840000D03*
X138430000Y-119380000D03*
X138430000Y-121920000D03*
X138430000Y-124460000D03*
X138430000Y-127000000D03*
X138430000Y-129540000D03*
D11*
X172720000Y-129540000D03*
D12*
X172720000Y-127000000D03*
X172720000Y-124460000D03*
X172720000Y-121920000D03*
X172720000Y-119380000D03*
X172720000Y-116840000D03*
X172720000Y-114300000D03*
X172720000Y-111760000D03*
X172720000Y-109220000D03*
X172720000Y-106680000D03*
X172720000Y-104140000D03*
D13*
X147890000Y-104140000D03*
X147890000Y-106140000D03*
X147890000Y-108140000D03*
X147890000Y-110140000D03*
X147890000Y-112140000D03*
X147890000Y-114140000D03*
X147890000Y-116140000D03*
X147890000Y-118140000D03*
X163290000Y-118140000D03*
X163290000Y-116140000D03*
X163290000Y-114140000D03*
X163290000Y-112140000D03*
X163290000Y-110140000D03*
X163290000Y-108140000D03*
X163290000Y-106140000D03*
X163290000Y-104140000D03*
D14*
X150580000Y-119840000D03*
X152580000Y-119840000D03*
X154580000Y-119840000D03*
X156580000Y-119840000D03*
X158580000Y-119840000D03*
X160580000Y-119840000D03*
D15*
X148590000Y-104140000D02*
X138430000Y-104140000D01*
X148590000Y-106140000D02*
X138970000Y-106140000D01*
X138970000Y-106140000D02*
X138430000Y-106680000D01*
X147320000Y-108140000D02*
X139510000Y-108140000D01*
X139510000Y-108140000D02*
X138430000Y-109220000D01*
X148590000Y-110140000D02*
X140050000Y-110140000D01*
X140050000Y-110140000D02*
X138430000Y-111760000D01*
X148590000Y-112140000D02*
X140590000Y-112140000D01*
X140590000Y-112140000D02*
X138430000Y-114300000D01*
X148590000Y-114140000D02*
X141130000Y-114140000D01*
X141130000Y-114140000D02*
X138430000Y-116840000D01*
X148590000Y-116140000D02*
X147890000Y-116840000D01*
X140970000Y-116840000D02*
X138430000Y-119380000D01*
X147890000Y-116840000D02*
X140970000Y-116840000D01*
X148590000Y-118140000D02*
X142210000Y-118140000D01*
X142210000Y-118140000D02*
X138430000Y-121920000D01*
X150580000Y-119140000D02*
X150580000Y-122470000D01*
X148590000Y-124460000D02*
X138430000Y-124460000D01*
X150580000Y-122470000D02*
X148590000Y-124460000D01*
X152580000Y-119140000D02*
X152580000Y-123010000D01*
X148590000Y-127000000D02*
X138430000Y-127000000D01*
X152580000Y-123010000D02*
X148590000Y-127000000D01*
X154580000Y-119140000D02*
X154580000Y-126090000D01*
X154580000Y-126090000D02*
X151130000Y-129540000D01*
X151130000Y-129540000D02*
X138430000Y-129540000D01*
X156580000Y-119140000D02*
X156580000Y-126100000D01*
X160020000Y-129540000D02*
X172720000Y-129540000D01*
X156580000Y-126100000D02*
X160020000Y-129540000D01*
X172720000Y-127000000D02*
X162560000Y-127000000D01*
X158580000Y-123020000D02*
X162560000Y-127000000D01*
X158580000Y-123020000D02*
X158580000Y-119140000D01*
X160580000Y-119140000D02*
X160580000Y-122480000D01*
X162560000Y-124460000D02*
X172720000Y-124460000D01*
X160580000Y-122480000D02*
X162560000Y-124460000D01*
X162590000Y-118140000D02*
X165130000Y-118140000D01*
X165130000Y-118140000D02*
X168910000Y-121920000D01*
X168910000Y-121920000D02*
X172720000Y-121920000D01*
X162590000Y-116140000D02*
X164400000Y-116140000D01*
X164400000Y-116140000D02*
X167640000Y-119380000D01*
X167640000Y-119380000D02*
X172720000Y-119380000D01*
X162590000Y-114140000D02*
X166210000Y-114140000D01*
X168910000Y-116840000D02*
X172720000Y-116840000D01*
X166210000Y-114140000D02*
X168910000Y-116840000D01*
X162590000Y-112140000D02*
X166750000Y-112140000D01*
X168910000Y-114300000D02*
X172720000Y-114300000D01*
X166750000Y-112140000D02*
X168910000Y-114300000D01*
X162590000Y-110140000D02*
X167290000Y-110140000D01*
X168910000Y-111760000D02*
X172720000Y-111760000D01*
X167290000Y-110140000D02*
X168910000Y-111760000D01*
X162590000Y-108140000D02*
X167450000Y-108140000D01*
X168530000Y-109220000D02*
X172720000Y-109220000D01*
X167450000Y-108140000D02*
X168530000Y-109220000D01*
X162590000Y-106140000D02*
X172180000Y-106140000D01*
X172180000Y-106140000D02*
X172720000Y-106680000D01*
X162590000Y-104140000D02*
X172720000Y-104140000D01*
M02*
